<svg width="91" height="90" fill="none" xmlns="http://www.w3.org/2000/svg"><path d="M69.542 6.261A4.125 4.125 0 0 0 66.573 5H25.156c-1.12 0-2.192.455-2.969 1.261l-20.07 20.81a4.124 4.124 0 0 0-.251 5.44l40.789 50.955a4.125 4.125 0 0 0 6.44 0l40.77-50.955a4.124 4.124 0 0 0-.252-5.44L69.542 6.261z" fill="#0069AB"/><path fill-rule="evenodd" clip-rule="evenodd" d="M69.542 6.261A4.124 4.124 0 0 0 66.573 5H25.156c-1.12 0-2.19.455-2.968 1.26l-.001.001-20.07 20.81a4.124 4.124 0 0 0-.251 5.44l40.789 50.955.003.004a4.12 4.12 0 0 0 4.296 1.4l20.118-48.867 23.696-5.979a4.118 4.118 0 0 0-1.154-2.951l-.001-.002-20.071-20.81z" fill="#009FD9"/><path fill-rule="evenodd" clip-rule="evenodd" d="M66.573 5c1.12 0 2.192.455 2.969 1.261l20.07 20.81a4.118 4.118 0 0 1 1.155 2.973l-2.75.734-7.483-9.251A41.245 41.245 0 0 0 51.353 6.322L32.499 5h34.074z" fill="#4DC3EA"/><path fill-rule="evenodd" clip-rule="evenodd" d="m59.372 5 7.7 31.003H24.668l20.13 48.868a4.093 4.093 0 0 1-2.138-1.398l-.005-.007-40.79-50.955a4.124 4.124 0 0 1 .251-5.44L22.187 6.26l.002-.002A4.124 4.124 0 0 1 25.156 5h34.216z" fill="#83DEFC"/><path fill-rule="evenodd" clip-rule="evenodd" d="m37.64 5 16.586 1.28a5.156 5.156 0 0 1 4.516 3.575l8.33 26.148L59.372 5H37.64zM45.566 85.002 1.491 31.956c.108.192.233.378.375.555l40.79 50.955a4.098 4.098 0 0 0 2.91 1.536zM32.356 5l-7.688 31.003L.962 30.024a4.118 4.118 0 0 1 1.155-2.954l20.07-20.809A4.125 4.125 0 0 1 25.156 5h7.2z" fill="#B2F0FF"/><path fill-rule="evenodd" clip-rule="evenodd" d="M25.156 5c-1.12 0-2.192.455-2.969 1.261l-20.07 20.81a4.118 4.118 0 0 0-1.155 2.973l2.75.734 12.055-15.449A28.277 28.277 0 0 1 32.5 5h-7.343z" fill="#CEF5FF"/><path fill-rule="evenodd" clip-rule="evenodd" d="M45.876 85.013v-.101l-42.164-54.2-2.75-.69c.018.88.318 1.757.904 2.49l40.789 50.954a4.103 4.103 0 0 0 3.22 1.547z" fill="#B2F0FF"/><path fill-rule="evenodd" clip-rule="evenodd" d="m90.768 30.022-2.75.69-42.165 54.2v.101a4.102 4.102 0 0 0 3-1.27l41.054-51.286a4.112 4.112 0 0 0 .86-2.435z" fill="#008CD1"/></svg>