<svg width="90" height="90" fill="none" xmlns="http://www.w3.org/2000/svg"><path d="M5.377 25.186C6.559 32.846 10.167 56.336 11 63c1 8 12.293 12.5 34 12.5S78 71 79 63c.833-6.664 4.441-30.153 5.624-37.814.137-.89-.881-1.48-1.598-.934l-19.28 14.67a2 2 0 0 1-2.907-.534L45.849 14.36a1 1 0 0 0-1.697 0l-14.99 24.028a2 2 0 0 1-2.908.533l-19.28-14.67c-.717-.544-1.735.045-1.597.935z" fill="#F7C631"/><path fill-rule="evenodd" clip-rule="evenodd" d="m31.654 65.876-3.827-26.58a1.992 1.992 0 0 1-1.573-.375l-19.28-14.67c-.716-.544-1.734.046-1.597.935 1.012 6.558 3.802 24.714 5.106 33.987h-.002c.22 1.56.397 2.868.517 3.827 1 8 12.293 12.5 34 12.5 14.41 0 24.23-1.983 29.497-5.656C68.596 71.72 61.772 73 54.501 73c-8.346 0-16.103-1.685-22.548-4.026a33.058 33.058 0 0 0-.299-3.098z" fill="#FCE26A"/><path fill-rule="evenodd" clip-rule="evenodd" d="m72.827 70.87 3.665-41.646 6.534-4.972c.717-.545 1.735.045 1.598.934C83.44 32.846 79.834 56.336 79 63c-.4 3.207-2.456 5.852-6.173 7.87z" fill="#FAD541"/></svg>